<svg xmlns="http://www.w3.org/2000/svg" xmlns:xlink="http://www.w3.org/1999/xlink" width="1587" zoomAndPan="magnify" viewBox="0 0 1190.25 1683.749945" height="2245" preserveAspectRatio="xMidYMid meet" version="1.0"><defs><g/><clipPath id="74998bf8ab"><path d="M 0 662 L 418 662 L 418 1358.25 L 0 1358.25 Z M 0 662 " clip-rule="nonzero"/></clipPath><clipPath id="d3b1eafa58"><path d="M 0 530 L 1189.5 530 L 1189.5 1271 L 0 1271 Z M 0 530 " clip-rule="nonzero"/></clipPath><clipPath id="d26d688031"><path d="M 934 458.816406 L 1038 458.816406 L 1038 646 L 934 646 Z M 934 458.816406 " clip-rule="nonzero"/></clipPath></defs><g clip-path="url(#74998bf8ab)"><path fill="#871e1e" d="M 0.214844 1270.25 L 417.851562 1358.226562 L 0.214844 662.941406 Z M 0.214844 1270.25 " fill-opacity="1" fill-rule="nonzero"/></g><g clip-path="url(#d3b1eafa58)"><path fill="#ef2929" d="M 0.214844 662.941406 L 0.214844 1270.25 L 1210.257812 1138.101562 L 1210.257812 530.789062 Z M 0.214844 662.941406 " fill-opacity="1" fill-rule="nonzero"/></g><path fill="#fcdc22" d="M 1111.441406 461.109375 L 1063.714844 646.800781 L 1188.878906 482.328125 Z M 1111.441406 461.109375 " fill-opacity="1" fill-rule="nonzero"/><g clip-path="url(#d26d688031)"><path fill="#fcdc22" d="M 934.859375 465.730469 L 1037.710938 645.988281 L 1037.757812 458.8125 Z M 934.859375 465.730469 " fill-opacity="1" fill-rule="nonzero"/></g><g fill="#ffffff" fill-opacity="1"><g transform="translate(52.273589, 1007.906939)"><g><path d="M 49.375 -6.75 L 10.375 -1.421875 L -2.328125 -94.390625 L 61.078125 -103.046875 C 76.242188 -105.117188 88.632812 -105.65625 98.25 -104.65625 C 107.875 -103.65625 115.148438 -101.015625 120.078125 -96.734375 C 125.015625 -92.460938 128.019531 -86.421875 129.09375 -78.609375 C 130.15625 -70.828125 128.878906 -64.21875 125.265625 -58.78125 C 121.660156 -53.34375 115.359375 -48.851562 106.359375 -45.3125 C 97.367188 -41.769531 85.289062 -38.960938 70.125 -36.890625 L 45.71875 -33.5625 Z M 42.578125 -56.5 L 64.84375 -59.59375 C 71.070312 -60.445312 75.941406 -61.367188 79.453125 -62.359375 C 82.960938 -63.347656 85.507812 -64.410156 87.09375 -65.546875 C 88.675781 -66.691406 89.625 -67.910156 89.9375 -69.203125 C 90.25 -70.492188 90.304688 -71.851562 90.109375 -73.28125 C 89.910156 -74.75 89.484375 -76.066406 88.828125 -77.234375 C 88.179688 -78.398438 86.941406 -79.316406 85.109375 -79.984375 C 83.285156 -80.660156 80.550781 -81 76.90625 -81 C 73.257812 -81.007812 68.320312 -80.585938 62.09375 -79.734375 L 39.828125 -76.703125 Z M 42.578125 -56.5 "/></g></g></g><g fill="#ffffff" fill-opacity="1"><g transform="translate(214.369083, 985.767501)"><g><path d="M 70.5625 -7.578125 C 47.59375 -4.441406 30.039062 -6.867188 17.90625 -14.859375 C 7.175781 -21.921875 0.820312 -32.679688 -1.15625 -47.140625 C -3.125 -61.578125 0.109375 -73.640625 8.546875 -83.328125 C 18.097656 -94.265625 34.359375 -101.300781 57.328125 -104.4375 C 80.304688 -107.582031 97.863281 -105.164062 110 -97.1875 C 120.738281 -90.113281 127.09375 -79.359375 129.0625 -64.921875 C 131.039062 -50.460938 127.804688 -38.394531 119.359375 -28.71875 C 109.804688 -17.769531 93.539062 -10.722656 70.5625 -7.578125 Z M 67.15625 -32.515625 C 76.570312 -33.804688 83.113281 -37.457031 86.78125 -43.46875 C 89.726562 -48.3125 90.796875 -53.6875 89.984375 -59.59375 C 89.171875 -65.519531 86.703125 -70.398438 82.578125 -74.234375 C 77.429688 -79.066406 70.148438 -80.835938 60.734375 -79.546875 C 51.328125 -78.265625 44.769531 -74.601562 41.0625 -68.5625 C 38.101562 -63.757812 37.03125 -58.394531 37.84375 -52.46875 C 38.65625 -46.5625 41.128906 -41.671875 45.265625 -37.796875 C 50.453125 -32.992188 57.75 -31.234375 67.15625 -32.515625 Z M 67.15625 -32.515625 "/></g></g></g><g fill="#ffffff" fill-opacity="1"><g transform="translate(374.58585, 963.884665)"><g><path d="M 49.375 -6.75 L 10.375 -1.421875 L -2.328125 -94.390625 L 61.078125 -103.046875 C 76.242188 -105.117188 88.632812 -105.65625 98.25 -104.65625 C 107.875 -103.65625 115.148438 -101.015625 120.078125 -96.734375 C 125.015625 -92.460938 128.019531 -86.421875 129.09375 -78.609375 C 130.15625 -70.828125 128.878906 -64.21875 125.265625 -58.78125 C 121.660156 -53.34375 115.359375 -48.851562 106.359375 -45.3125 C 97.367188 -41.769531 85.289062 -38.960938 70.125 -36.890625 L 45.71875 -33.5625 Z M 42.578125 -56.5 L 64.84375 -59.59375 C 71.070312 -60.445312 75.941406 -61.367188 79.453125 -62.359375 C 82.960938 -63.347656 85.507812 -64.410156 87.09375 -65.546875 C 88.675781 -66.691406 89.625 -67.910156 89.9375 -69.203125 C 90.25 -70.492188 90.304688 -71.851562 90.109375 -73.28125 C 89.910156 -74.75 89.484375 -76.066406 88.828125 -77.234375 C 88.179688 -78.398438 86.941406 -79.316406 85.109375 -79.984375 C 83.285156 -80.660156 80.550781 -81 76.90625 -81 C 73.257812 -81.007812 68.320312 -80.585938 62.09375 -79.734375 L 39.828125 -76.703125 Z M 42.578125 -56.5 "/></g></g></g><g fill="#ffffff" fill-opacity="1"><g transform="translate(536.681329, 941.74523)"><g><path d="M 65.640625 -6.90625 C 42.960938 -3.8125 26.363281 -6.347656 15.84375 -14.515625 C 7 -21.347656 1.554688 -32.234375 -0.484375 -47.171875 L -6.84375 -93.703125 L 32.140625 -99.03125 L 38.5 -52.5 C 39.382812 -46.019531 41.179688 -41.054688 43.890625 -37.609375 C 47.796875 -32.628906 53.910156 -30.707031 62.234375 -31.84375 C 70.660156 -33 76.0625 -36.492188 78.4375 -42.328125 C 80.101562 -46.503906 80.503906 -51.765625 79.640625 -58.109375 L 73.28125 -104.640625 L 112.28125 -109.96875 L 118.703125 -62.9375 C 120.703125 -48.332031 118.375 -36.554688 111.71875 -27.609375 C 103.71875 -16.910156 88.359375 -10.007812 65.640625 -6.90625 Z M 65.640625 -6.90625 "/></g></g></g><g fill="#ffffff" fill-opacity="1"><g transform="translate(687.115832, 921.198481)"><g><path d="M 118.875 -16.234375 L 10.375 -1.421875 L -2.328125 -94.390625 L 36.671875 -99.71875 L 46.234375 -29.75 L 115.734375 -39.234375 Z M 118.875 -16.234375 "/></g></g></g><g fill="#ffffff" fill-opacity="1"><g transform="translate(828.221559, 901.925882)"><g><path d="M 156.125 -21.328125 L 116.609375 -15.921875 L 105.78125 -29.953125 L 47.15625 -21.9375 L 40.484375 -5.53125 L 0.96875 -0.140625 L 47.75 -101.15625 L 83.96875 -106.109375 Z M 89.5 -51.15625 L 69.515625 -77.140625 L 57.171875 -46.734375 Z M 89.5 -51.15625 "/></g></g></g><g fill="#ffffff" fill-opacity="1"><g transform="translate(1004.958023, 877.786742)"><g><path d="M 137.265625 -18.75 L 100.40625 -13.71875 C 98.40625 -15.820312 96.8125 -18.640625 95.625 -22.171875 C 94.632812 -24.890625 93.347656 -27.515625 91.765625 -30.046875 C 90.191406 -32.585938 87.800781 -34.550781 84.59375 -35.9375 C 81.394531 -37.320312 76.878906 -37.679688 71.046875 -37.015625 L 45.71875 -33.5625 L 49.375 -6.75 L 10.375 -1.421875 L -2.328125 -94.390625 L 61.078125 -103.046875 C 76.242188 -105.117188 88.632812 -105.65625 98.25 -104.65625 C 107.875 -103.65625 115.148438 -101.015625 120.078125 -96.734375 C 125.015625 -92.460938 128.019531 -86.421875 129.09375 -78.609375 C 129.976562 -72.085938 129.25 -66.398438 126.90625 -61.546875 C 124.5625 -56.691406 120.367188 -52.535156 114.328125 -49.078125 C 120.847656 -47.367188 125.269531 -44.859375 127.59375 -41.546875 C 129.925781 -38.234375 131.59375 -34.46875 132.59375 -30.25 C 133.550781 -26.507812 135.109375 -22.675781 137.265625 -18.75 Z M 42.578125 -56.5 L 64.84375 -59.59375 C 71.070312 -60.445312 75.9375 -61.398438 79.4375 -62.453125 C 82.9375 -63.503906 85.472656 -64.632812 87.046875 -65.84375 C 88.617188 -67.050781 89.5625 -68.28125 89.875 -69.53125 C 90.195312 -70.78125 90.273438 -72.03125 90.109375 -73.28125 C 89.929688 -74.53125 89.519531 -75.726562 88.875 -76.875 C 88.238281 -78.019531 87 -78.960938 85.15625 -79.703125 C 83.3125 -80.441406 80.5625 -80.84375 76.90625 -80.90625 C 73.257812 -80.976562 68.320312 -80.585938 62.09375 -79.734375 L 39.828125 -76.703125 Z M 42.578125 -56.5 "/></g></g></g></svg>